<svg width="201" height="201" viewBox="0 0 201 201" fill="none" xmlns="http://www.w3.org/2000/svg">
<path d="M92.7578 178.982L90.2808 194.166L84.7202 193.259C83.6427 193.084 82.7795 192.76 82.1308 192.289C81.4812 191.823 81.0301 191.259 80.7776 190.599C80.5242 189.944 80.4588 189.241 80.5813 188.489C80.6846 187.857 80.8878 187.342 81.1911 186.945C81.4935 186.552 81.8614 186.257 82.2946 186.059C82.722 185.865 83.1778 185.746 83.6617 185.704L83.6859 185.555C83.1858 185.448 82.7206 185.205 82.2903 184.825C81.8543 184.45 81.5229 183.962 81.2961 183.362C81.0692 182.761 81.0199 182.068 81.1481 181.282C81.2747 180.506 81.5713 179.839 82.0378 179.281C82.4986 178.727 83.1366 178.331 83.9517 178.094C84.766 177.861 85.7613 177.841 86.9377 178.033L92.7578 178.982ZM90.1463 180.573L86.8396 180.034C85.7423 179.855 84.9218 179.939 84.3779 180.287C83.8341 180.635 83.5101 181.127 83.4061 181.765C83.3279 182.244 83.3772 182.704 83.5541 183.144C83.731 183.584 84.025 183.959 84.4361 184.27C84.8422 184.579 85.3517 184.784 85.9646 184.884L89.3529 185.437L90.1463 180.573ZM89.0614 187.224L85.992 186.723C85.4779 186.639 84.9996 186.663 84.5571 186.793C84.1097 186.923 83.7359 187.147 83.4356 187.463C83.1296 187.784 82.9367 188.188 82.8569 188.678C82.7545 189.305 82.8885 189.868 83.2591 190.365C83.6297 190.861 84.2697 191.184 85.1791 191.332L88.3079 191.843L89.0614 187.224Z" fill="white"/>
<path d="M70.4597 173.083C71.5122 173.513 72.3268 174.108 72.9036 174.868C73.4738 175.631 73.7977 176.507 73.8753 177.496C73.9463 178.488 73.7556 179.538 73.3032 180.646C72.8564 181.741 72.2587 182.622 71.5099 183.29C70.7565 183.956 69.9156 184.372 68.9872 184.54C68.0541 184.705 67.0915 184.585 66.0993 184.18C65.4965 183.934 64.953 183.596 64.4688 183.166C63.9845 182.735 63.6046 182.215 63.329 181.605C63.0535 180.995 62.925 180.296 62.9436 179.508C62.9604 178.725 63.1666 177.849 63.5622 176.88L63.8632 176.143L72.355 179.61L71.7189 181.168L65.2649 178.533C65.0415 179.08 64.955 179.61 65.0052 180.123C65.0536 180.64 65.2294 181.104 65.5324 181.514C65.8308 181.923 66.2489 182.237 66.7868 182.457C67.371 182.695 67.9397 182.76 68.4929 182.65C69.0395 182.543 69.5248 182.309 69.9487 181.946C70.366 181.587 70.6836 181.14 70.9013 180.607L71.3982 179.39C71.6897 178.676 71.8126 178.017 71.7666 177.414C71.7161 176.81 71.5176 176.282 71.1711 175.832C70.8227 175.387 70.3449 175.041 69.7375 174.793C69.3434 174.632 68.9613 174.541 68.5913 174.519C68.2195 174.503 67.8689 174.56 67.5397 174.69C67.2105 174.821 66.9151 175.028 66.6536 175.311L64.8302 174.152C65.2245 173.637 65.7146 173.245 66.3006 172.976C66.88 172.709 67.525 172.58 68.2354 172.589C68.9394 172.601 69.6808 172.765 70.4597 173.083Z" fill="white"/>
<path d="M47.1463 170.126L49.0289 170.98C48.9518 171.243 48.923 171.524 48.9427 171.823C48.9582 172.119 49.0514 172.417 49.2224 172.716C49.3935 173.016 49.671 173.297 50.055 173.561C50.5795 173.921 51.098 174.103 51.6105 174.109C52.1202 174.118 52.5011 173.939 52.7533 173.572C52.9714 173.254 53.0294 172.917 52.9272 172.562C52.825 172.206 52.5542 171.786 52.1147 171.303L50.8413 169.919C50.1047 169.116 49.6662 168.356 49.5257 167.64C49.3853 166.924 49.546 166.23 50.0078 165.557C50.3988 164.987 50.9125 164.592 51.5489 164.373C52.1783 164.155 52.8726 164.121 53.6318 164.272C54.3869 164.419 55.1485 164.757 55.9166 165.284C56.982 166.015 57.6954 166.838 58.0569 167.754C58.4155 168.674 58.3822 169.608 57.9569 170.555L55.9798 169.6C56.1885 169.057 56.2015 168.546 56.019 168.069C55.8336 167.595 55.4622 167.167 54.9047 166.785C54.2977 166.368 53.726 166.161 53.1898 166.164C52.6507 166.171 52.2551 166.358 52.0029 166.725C51.7989 167.023 51.739 167.349 51.8232 167.704C51.9032 168.057 52.1349 168.441 52.5183 168.855L53.8866 170.314C54.6356 171.125 55.0712 171.898 55.1933 172.631C55.3114 173.362 55.138 174.066 54.6734 174.744C54.288 175.305 53.7939 175.689 53.1911 175.895C52.5882 176.101 51.9294 176.131 51.2145 175.987C50.4968 175.847 49.7808 175.532 49.0664 175.042C48.0381 174.336 47.3817 173.558 47.0972 172.707C46.8099 171.86 46.8262 170.999 47.1463 170.126Z" fill="white"/>
<path d="M34.1752 162.166L35.4489 160.89L39.9094 165.343L38.6356 166.619L34.1752 162.166ZM35.4863 167.382L33.8967 165.795L41.6084 158.07C41.9162 157.762 42.1019 157.483 42.1654 157.235C42.2254 156.991 42.211 156.768 42.1223 156.566C42.0266 156.364 41.8918 156.177 41.7182 156.003C41.5906 155.876 41.4701 155.774 41.3567 155.696C41.2433 155.618 41.1547 155.558 41.0909 155.515L42.1148 153.916C42.2423 153.972 42.4088 154.068 42.6143 154.202C42.8234 154.333 43.0573 154.524 43.316 154.775C43.7413 155.186 44.0569 155.649 44.2627 156.166C44.4685 156.683 44.5203 157.216 44.4181 157.765C44.3159 158.314 44.0188 158.835 43.527 159.327L35.4863 167.382Z" fill="white"/>
<path d="M17.452 146.223L16.288 143.657L25.1548 134.255L25.0803 134.091L12.1658 134.573L11.0018 132.007L25.0119 125.65L25.9245 127.661L15.7863 132.262L15.8453 132.392L27.8378 131.933L28.5951 133.602L20.3455 142.328L20.4045 142.458L30.5495 137.854L31.4621 139.866L17.452 146.223Z" fill="white"/>
<path d="M17.1938 111.939L10.5372 113.078L10.157 110.857L21.5303 108.91L21.9029 111.087L19.9333 111.424L19.9536 111.543C20.6055 111.701 21.1833 112.034 21.6869 112.542C22.1848 113.046 22.5068 113.725 22.6529 114.579C22.778 115.31 22.7282 115.984 22.5037 116.601C22.2733 117.215 21.8672 117.737 21.2854 118.167C20.7026 118.591 19.9423 118.884 19.0044 119.045L11.7702 120.283L11.3913 118.069L18.359 116.876C19.134 116.744 19.7142 116.423 20.0998 115.915C20.4854 115.407 20.6195 114.81 20.502 114.124C20.4311 113.709 20.2569 113.315 19.9794 112.941C19.7011 112.562 19.329 112.272 18.8629 112.072C18.396 111.868 17.8396 111.823 17.1938 111.939Z" fill="white"/>
<path d="M12.7153 92.0447L12.9856 94.0944C12.7216 94.1679 12.468 94.2921 12.2247 94.4668C11.9815 94.6365 11.7781 94.8731 11.6142 95.1767C11.4504 95.4802 11.3582 95.8647 11.3376 96.33C11.3095 96.9654 11.4287 97.502 11.695 97.9399C11.9564 98.3776 12.3097 98.6063 12.755 98.626C13.1402 98.643 13.4567 98.5142 13.7045 98.2394C13.9523 97.9646 14.1653 97.5128 14.3435 96.8841L14.8448 95.0715C15.1369 94.0216 15.5496 93.2479 16.0829 92.7501C16.6163 92.2523 17.2907 92.0215 18.1062 92.0576C18.7967 92.0881 19.4032 92.3155 19.9259 92.7397C20.4437 93.1586 20.8395 93.73 21.1133 94.454C21.3873 95.173 21.5037 95.9977 21.4625 96.9283C21.4054 98.2192 21.0836 99.2602 20.4972 100.051C19.9057 100.842 19.0956 101.308 18.0667 101.448L17.8325 99.2642C18.4038 99.1541 18.8439 98.8954 19.1527 98.4879C19.4565 98.0803 19.6233 97.5388 19.6532 96.8633C19.6857 96.1279 19.5591 95.5332 19.2734 95.0794C18.9827 94.6254 18.6147 94.3886 18.1694 94.3689C17.8092 94.3529 17.5005 94.4746 17.2434 94.734C16.9865 94.9883 16.7833 95.3878 16.6339 95.9327L16.1198 97.865C15.827 98.9298 15.4016 99.7081 14.8435 100.2C14.2855 100.686 13.5963 100.912 12.7758 100.875C12.0953 100.845 11.5084 100.629 11.0149 100.226C10.5214 99.823 10.1469 99.2801 9.89134 98.597C9.63082 97.9138 9.51971 97.1393 9.558 96.2738C9.61312 95.028 9.92668 94.0593 10.4987 93.3678C11.0657 92.676 11.8046 92.235 12.7153 92.0447Z" fill="white"/>
<path d="M22.674 84.6459L11.4015 82.1819L11.8811 79.9876L23.1536 82.4515L22.674 84.6459ZM9.90438 80.6936C9.82097 81.0752 9.62211 81.3752 9.30781 81.5936C8.98968 81.806 8.65204 81.8732 8.29488 81.7951C7.93283 81.716 7.65401 81.5141 7.45841 81.1894C7.25899 80.8587 7.20099 80.5025 7.2844 80.1209C7.36781 79.7393 7.56858 79.4423 7.88671 79.2299C8.20101 79.0115 8.53919 78.9419 8.90124 79.021C9.2584 79.0991 9.53669 79.3034 9.73611 79.6341C9.9317 79.9588 9.9878 80.312 9.90438 80.6936Z" fill="white"/>
<path d="M27.3405 70.055C26.9136 71.0869 26.3123 71.8788 25.5366 72.4305C24.7583 72.9756 23.8726 73.2758 22.8796 73.3311C21.8866 73.3864 20.8556 73.1929 19.7866 72.7506C18.7037 72.3026 17.8323 71.7036 17.1725 70.9537C16.508 70.2018 16.0952 69.359 15.9341 68.4252C15.773 67.4914 15.9002 66.5224 16.3157 65.5182C16.6507 64.7083 17.0998 64.0486 17.6629 63.5391C18.2214 63.0276 18.8494 62.6886 19.5471 62.5219C20.2466 62.3507 20.9704 62.3764 21.7183 62.5991L20.8826 64.6191C20.3368 64.5234 19.8012 64.5999 19.2755 64.8485C18.7518 65.0925 18.3531 65.5454 18.0793 66.2072C17.84 66.7856 17.7831 67.3556 17.9085 67.9169C18.0313 68.4717 18.3228 68.9853 18.7832 69.4576C19.239 69.928 19.8464 70.3202 20.6053 70.6342C21.3828 70.9558 22.1026 71.1154 22.7648 71.113C23.427 71.1105 24.0022 70.9583 24.4903 70.6562C24.9803 70.3494 25.3469 69.9022 25.5901 69.3145C25.7528 68.9212 25.8285 68.5351 25.8171 68.1565C25.8031 67.7713 25.7045 67.4134 25.5215 67.083C25.3403 66.7479 25.0759 66.4569 24.7282 66.2101L25.5639 64.1901C26.2228 64.5494 26.7454 65.0285 27.1318 65.6274C27.5181 66.2262 27.7361 66.9044 27.7858 67.6621C27.8374 68.4151 27.689 69.2127 27.3405 70.055Z" fill="white"/>
<path d="M42.2672 46.285L38.8188 49.8787L27.7179 39.2267L31.2755 35.5192C32.3192 34.4315 33.4378 33.7106 34.6312 33.3566C35.821 32.9991 37.0291 33.0096 38.2553 33.3881C39.4815 33.7595 40.6709 34.4982 41.8236 35.6043C42.98 36.7139 43.7709 37.8788 44.1963 39.0991C44.6252 40.3158 44.6823 41.5366 44.3675 42.7616C44.0492 43.9831 43.349 45.1575 42.2672 46.285ZM38.9625 46.7995L40.7153 44.9728C41.5267 44.1272 42.0421 43.2718 42.2615 42.4066C42.4774 41.5379 42.4153 40.6731 42.0752 39.8124C41.7315 38.9481 41.1206 38.0947 40.2425 37.2521C39.3716 36.4165 38.4991 35.8465 37.6251 35.5422C36.7544 35.2343 35.9002 35.2024 35.0622 35.4463C34.2242 35.6903 33.4169 36.217 32.6402 37.0265L30.7886 38.9561L38.9625 46.7995Z" fill="white"/>
<path d="M53.6844 36.14L47.0683 26.6865L48.9085 25.3986L55.5246 34.8521L53.6844 36.14ZM46.9768 24.5775C46.6568 24.8015 46.3072 24.8872 45.9281 24.8346C45.5503 24.7751 45.2565 24.5956 45.0469 24.2961C44.8344 23.9924 44.7663 23.655 44.8427 23.2837C44.9202 22.9054 45.1191 22.6043 45.4391 22.3803C45.7591 22.1563 46.1081 22.0741 46.4859 22.1336C46.865 22.1862 47.1608 22.3643 47.3733 22.6679C47.583 22.9674 47.649 23.3063 47.5714 23.6846C47.495 24.0559 47.2969 24.3535 46.9768 24.5775Z" fill="white"/>
<path d="M66.6392 18.8543L64.9505 20.047C64.7626 19.8476 64.5347 19.6808 64.2669 19.5467C64.0036 19.4105 63.6994 19.3404 63.3545 19.3366C63.0096 19.3328 62.6264 19.4301 62.2049 19.6283C61.6294 19.899 61.2098 20.2541 60.9461 20.6936C60.6802 21.1286 60.6422 21.5477 60.8319 21.9511C60.996 22.3 61.2573 22.5202 61.6158 22.6117C61.9743 22.7032 62.4733 22.6816 63.1128 22.5468L64.9505 22.1473C66.0157 21.9175 66.8927 21.9229 67.5814 22.1634C68.2701 22.404 68.7882 22.8936 69.1357 23.6323C69.4298 24.2577 69.5107 24.9004 69.3784 25.5603C69.2485 26.2136 68.9268 26.8299 68.4133 27.409C67.9043 27.986 67.2284 28.4727 66.3854 28.8692C65.2162 29.4191 64.145 29.6186 63.1719 29.4675C62.1966 29.3119 61.4077 28.8113 60.8052 27.9657L62.629 26.7426C62.9923 27.1971 63.426 27.4663 63.9303 27.5501C64.4325 27.6293 64.9895 27.5251 65.6013 27.2373C66.2675 26.924 66.7349 26.5353 67.0037 26.0713C67.2704 25.6027 67.3088 25.1668 67.1191 24.7635C66.9656 24.4372 66.7143 24.2205 66.3651 24.1136C66.0205 24.0045 65.5723 24.0105 65.0205 24.1317L63.0708 24.5756C61.9921 24.8118 61.1052 24.7972 60.4104 24.5319C59.72 24.2644 59.2001 23.7591 58.8505 23.0158C58.5606 22.3995 58.4792 21.7792 58.6062 21.155C58.7332 20.5307 59.0395 19.9466 59.5253 19.4027C60.0089 18.8542 60.6428 18.3956 61.4268 18.0268C62.5552 17.4961 63.5585 17.323 64.4368 17.5076C65.3129 17.6877 66.0471 18.1366 66.6392 18.8543Z" fill="white"/>
<path d="M80.0647 11.6877L80.5221 13.4317L74.4255 15.0304L73.9682 13.2865L80.0647 11.6877ZM74.9019 10.1837L77.0746 9.61393L79.8433 20.1721C79.9539 20.5935 80.1 20.8943 80.2819 21.0744C80.4625 21.2497 80.6622 21.3501 80.8812 21.3755C81.1037 21.3948 81.3336 21.3733 81.571 21.3111C81.7454 21.2653 81.8948 21.2132 82.0193 21.1547C82.1437 21.0962 82.2403 21.0501 82.3092 21.0165L83.1723 22.7084C83.059 22.7899 82.8925 22.8854 82.6727 22.9948C82.4541 23.1091 82.1711 23.2143 81.8235 23.3107C81.2545 23.4702 80.6949 23.5083 80.1449 23.4247C79.5949 23.3411 79.1088 23.1165 78.6868 22.7509C78.2647 22.3852 77.9654 21.8657 77.7888 21.1924L74.9019 10.1837Z" fill="white"/>
<path d="M90.0397 21.602L88.9842 10.1117L91.1462 9.91312L91.3138 11.7384L91.4335 11.7274C91.5862 11.0898 91.9105 10.5696 92.4067 10.167C92.9073 9.7589 93.4942 9.52393 94.1675 9.46209C94.3071 9.44927 94.4722 9.43914 94.6626 9.4317C94.858 9.42381 95.0113 9.42231 95.1224 9.42719L95.3189 11.5667C95.2268 11.55 95.0647 11.5372 94.8325 11.5284C94.5999 11.5145 94.3689 11.5181 94.1395 11.5392C93.6109 11.5878 93.1499 11.7433 92.7566 12.0057C92.3678 12.2627 92.0718 12.5992 91.8686 13.0151C91.665 13.4261 91.586 13.881 91.6319 14.3797L92.2764 21.3965L90.0397 21.602Z" fill="white"/>
<path d="M103.589 21.053L104.293 9.53585L106.535 9.67292L105.831 21.1901L103.589 21.053ZM105.534 7.82801C105.144 7.80417 104.817 7.65373 104.553 7.37667C104.294 7.09493 104.176 6.7716 104.198 6.40669C104.221 6.03679 104.378 5.73027 104.669 5.48714C104.965 5.23932 105.308 5.12733 105.698 5.15117C106.087 5.17501 106.412 5.3278 106.671 5.60954C106.935 5.88659 107.055 6.21007 107.033 6.57998C107.01 6.94489 106.851 7.25126 106.555 7.49908C106.264 7.7422 105.924 7.85185 105.534 7.82801Z" fill="white"/>
<path d="M114.222 22.0589L117.942 7.13064L120.122 7.67382L118.739 13.2209L118.87 13.2536C119.055 13.0518 119.304 12.8275 119.619 12.5807C119.933 12.3339 120.33 12.149 120.81 12.026C121.291 11.8981 121.879 11.9208 122.574 12.094C123.478 12.3192 124.227 12.7487 124.823 13.3823C125.419 14.0159 125.811 14.813 126 15.7737C126.194 16.7355 126.14 17.8214 125.838 19.0314C125.537 20.2414 125.076 21.2287 124.458 21.9931C123.84 22.7527 123.121 23.278 122.3 23.5689C121.48 23.8549 120.618 23.8853 119.714 23.66C119.034 23.4905 118.506 23.2376 118.13 22.9014C117.76 22.5665 117.491 22.2156 117.324 21.8489C117.158 21.4822 117.038 21.1635 116.967 20.8926L116.784 20.8472L116.35 22.5893L114.222 22.0589ZM117.753 16.9931C117.556 17.7803 117.499 18.4988 117.579 19.1486C117.66 19.7984 117.875 20.3448 118.224 20.7879C118.574 21.2261 119.062 21.5233 119.689 21.6796C120.34 21.8419 120.928 21.805 121.451 21.569C121.976 21.3281 122.424 20.9367 122.797 20.3947C123.174 19.8539 123.456 19.2093 123.642 18.4609C123.826 17.7223 123.88 17.0311 123.803 16.3874C123.731 15.7449 123.516 15.1985 123.159 14.7481C122.806 14.299 122.302 13.9926 121.646 13.8291C121.014 13.6717 120.439 13.7013 119.92 13.9178C119.407 14.1356 118.966 14.5082 118.597 15.0357C118.228 15.5631 117.946 16.2156 117.753 16.9931Z" fill="white"/>
<path d="M140.315 26.3609L143.375 20.3404L145.384 21.3614L140.156 31.6479L138.187 30.6473L139.092 28.8659L138.985 28.8115C138.47 29.2404 137.858 29.5051 137.149 29.6058C136.447 29.7042 135.71 29.5572 134.938 29.1647C134.277 28.8288 133.766 28.3865 133.405 27.8377C133.05 27.2866 132.874 26.6494 132.876 25.9259C132.883 25.2048 133.102 24.4201 133.533 23.5718L136.858 17.0289L138.861 18.0465L135.658 24.3483C135.302 25.0493 135.213 25.706 135.39 26.3187C135.567 26.9313 135.966 27.3953 136.587 27.7106C136.962 27.9012 137.382 27.9969 137.848 27.9977C138.319 28.0008 138.773 27.875 139.211 27.6203C139.654 27.3679 140.022 26.9481 140.315 26.3609Z" fill="white"/>
<path d="M158.063 30.234L156.959 31.6588L151.977 27.7971L153.082 26.3722L158.063 30.234ZM156.112 25.2231L157.887 26.5993L151.199 35.2257C150.932 35.57 150.783 35.8691 150.75 36.1231C150.721 36.373 150.764 36.5926 150.877 36.7817C150.997 36.97 151.154 37.1393 151.348 37.2896C151.49 37.4001 151.623 37.4869 151.745 37.5499C151.867 37.613 151.963 37.6616 152.031 37.6957L151.215 39.4107C151.081 39.3705 150.904 39.2966 150.683 39.1888C150.46 39.0851 150.204 38.9247 149.916 38.7078C149.443 38.3536 149.072 37.9329 148.803 37.4458C148.534 36.9587 148.416 36.4364 148.449 35.8789C148.482 35.3215 148.712 34.7677 149.139 34.2175L156.112 25.2231Z" fill="white"/>
<path d="M156.28 44.2503L164.605 36.2613L166.16 37.882L157.835 45.8709L156.28 44.2503ZM166.675 35.8471C166.405 35.5652 166.267 35.233 166.26 34.8503C166.261 34.4678 166.393 34.15 166.657 33.8968C166.925 33.6402 167.248 33.5212 167.626 33.5396C168.012 33.5582 168.34 33.7084 168.61 33.9903C168.881 34.2721 169.016 34.6043 169.015 34.9869C169.021 35.3695 168.891 35.6891 168.623 35.9457C168.359 36.1989 168.035 36.3161 167.649 36.2975C167.27 36.2791 166.946 36.129 166.675 35.8471Z" fill="white"/>
<path d="M165.799 56.2534C165.199 55.3531 164.882 54.43 164.847 53.4841C164.813 52.5382 165.043 51.6327 165.538 50.7675C166.033 49.9023 166.776 49.1393 167.768 48.4784C168.764 47.8148 169.759 47.42 170.752 47.2939C171.745 47.1678 172.672 47.3028 173.531 47.699C174.391 48.0951 175.121 48.7433 175.72 49.6436C176.32 50.5439 176.637 51.467 176.672 52.4129C176.706 53.3588 176.474 54.2657 175.975 55.1337C175.476 56.0017 174.728 56.7674 173.732 57.4311C172.74 58.0919 171.75 58.484 170.761 58.6073C169.772 58.7306 168.848 58.5942 167.988 58.198C167.128 57.8019 166.399 57.1537 165.799 56.2534ZM167.372 55.2142C167.761 55.7978 168.237 56.1785 168.801 56.3565C169.365 56.5344 169.964 56.5444 170.599 56.3862C171.237 56.2322 171.864 55.9498 172.481 55.5388C173.093 55.1307 173.594 54.6621 173.981 54.133C174.376 53.6053 174.602 53.0456 174.659 52.4539C174.716 51.8622 174.55 51.2746 174.162 50.6911C173.77 50.1034 173.289 49.7199 172.718 49.5405C172.15 49.3653 171.545 49.3561 170.903 49.5129C170.269 49.671 169.645 49.9542 169.032 50.3623C168.415 50.7733 167.912 51.2412 167.521 51.7661C167.133 52.2952 166.913 52.8542 166.86 53.4431C166.81 54.0362 166.981 54.6266 167.372 55.2142Z" fill="white"/>
<path d="M179.447 66.6163L173.054 69.0801L172.247 66.9842L183.013 62.8348L183.789 64.8465L182.036 65.5219L182.088 65.6551C182.753 65.683 183.361 65.8944 183.91 66.2892C184.461 66.6886 184.892 67.2926 185.204 68.101C185.487 68.8347 185.58 69.5367 185.484 70.207C185.393 70.8755 185.105 71.4777 184.619 72.0138C184.133 72.5499 183.446 72.989 182.558 73.3312L175.71 75.9705L174.902 73.8746L181.498 71.3326C182.279 71.0318 182.81 70.5935 183.093 70.0177C183.38 69.44 183.387 68.796 183.113 68.0857C182.926 67.5997 182.654 67.208 182.298 66.9105C181.943 66.6177 181.521 66.4398 181.029 66.3769C180.545 66.3168 180.017 66.3966 179.447 66.6163Z" fill="white"/>
<path d="M189.684 106.962L189.695 104.618C190.196 104.53 190.638 104.365 191.019 104.121C191.401 103.877 191.725 103.578 191.993 103.224C192.26 102.87 192.462 102.473 192.599 102.032C192.736 101.597 192.806 101.134 192.808 100.644C192.812 99.7572 192.593 98.9624 192.151 98.2592C191.708 97.5611 191.057 97.0071 190.198 96.5975C189.338 96.1929 188.287 95.9877 187.046 95.9819C185.793 95.9761 184.736 96.1715 183.873 96.5682C183.009 96.9698 182.356 97.5202 181.912 98.2193C181.468 98.9184 181.244 99.7061 181.24 100.583C181.238 101.068 181.3 101.529 181.429 101.966C181.562 102.407 181.758 102.806 182.017 103.163C182.275 103.52 182.592 103.822 182.966 104.069C183.346 104.321 183.781 104.496 184.271 104.593L184.253 106.937C183.497 106.808 182.802 106.562 182.168 106.198C181.538 105.84 180.995 105.379 180.537 104.816C180.083 104.258 179.733 103.621 179.486 102.903C179.239 102.186 179.118 101.404 179.121 100.558C179.128 99.2256 179.449 98.0401 180.084 97.0014C180.725 95.9626 181.638 95.1455 182.823 94.55C184.007 93.9596 185.419 93.6681 187.056 93.6757C188.699 93.6833 190.107 93.9903 191.281 94.5968C192.46 95.2032 193.363 96.0287 193.989 97.0733C194.62 98.1179 194.933 99.3038 194.927 100.631C194.923 101.447 194.802 102.208 194.563 102.913C194.33 103.623 193.986 104.26 193.533 104.824C193.084 105.388 192.536 105.853 191.889 106.221C191.246 106.589 190.511 106.836 189.684 106.962Z" fill="white"/>
<path d="M176.817 118.907C177.077 117.857 177.545 117 178.22 116.337C178.895 115.673 179.719 115.233 180.691 115.014C181.664 114.796 182.729 114.83 183.886 115.117C185.047 115.404 186.01 115.872 186.773 116.52C187.536 117.169 188.061 117.944 188.348 118.845C188.636 119.747 188.65 120.723 188.39 121.773C188.129 122.823 187.662 123.68 186.987 124.343C186.312 125.007 185.485 125.447 184.508 125.664C183.531 125.881 182.461 125.846 181.299 125.558C180.142 125.272 179.185 124.805 178.427 124.158C177.669 123.511 177.146 122.737 176.858 121.835C176.571 120.933 176.557 119.957 176.817 118.907ZM178.646 119.368C178.477 120.048 178.517 120.657 178.766 121.193C179.015 121.729 179.412 122.179 179.957 122.541C180.501 122.907 181.133 123.18 181.852 123.358C182.567 123.535 183.25 123.588 183.902 123.518C184.558 123.453 185.124 123.242 185.599 122.885C186.074 122.528 186.396 122.01 186.565 121.329C186.735 120.644 186.693 120.03 186.44 119.487C186.187 118.95 185.785 118.497 185.237 118.129C184.692 117.767 184.062 117.497 183.347 117.32C182.628 117.142 181.943 117.086 181.292 117.152C180.64 117.223 180.078 117.437 179.608 117.795C179.136 118.158 178.816 118.682 178.646 119.368Z" fill="white"/>
<path d="M173.504 130.924L183.635 136.448L182.602 138.341L180.954 137.442L180.885 137.567C181.329 138.083 181.576 138.665 181.626 139.315C181.682 139.967 181.527 140.627 181.163 141.295C180.793 141.972 180.326 142.453 179.76 142.738C179.192 143.027 178.57 143.13 177.897 143.048L177.839 143.153C178.248 143.69 178.469 144.31 178.502 145.013C178.54 145.718 178.36 146.435 177.962 147.165C177.461 148.084 176.764 148.676 175.871 148.943C174.976 149.213 173.949 149.032 172.788 148.399L165.995 144.695L167.07 142.723L173.679 146.327C174.364 146.701 174.963 146.785 175.475 146.579C175.986 146.373 176.384 146.011 176.667 145.492C177.017 144.85 177.091 144.243 176.889 143.671C176.692 143.101 176.286 142.649 175.67 142.313L169.214 138.792L170.285 136.827L177.019 140.499C177.569 140.798 178.104 140.868 178.625 140.707C179.147 140.547 179.557 140.191 179.857 139.642C180.06 139.268 180.15 138.869 180.125 138.444C180.101 138.027 179.969 137.626 179.727 137.244C179.483 136.865 179.132 136.551 178.675 136.302L172.429 132.896L173.504 130.924Z" fill="white"/>
<path d="M158.132 147.705L169.612 158.656L168.098 160.243L166.744 158.952L166.615 159.088C166.699 159.348 166.77 159.676 166.829 160.071C166.888 160.466 166.852 160.903 166.722 161.381C166.595 161.862 166.284 162.361 165.79 162.88C165.147 163.554 164.403 163.993 163.558 164.197C162.712 164.401 161.825 164.348 160.897 164.036C159.965 163.729 159.048 163.145 158.146 162.284C157.244 161.423 156.613 160.535 156.255 159.619C155.901 158.706 155.8 157.821 155.954 156.964C156.111 156.11 156.511 155.346 157.154 154.672C157.638 154.165 158.118 153.831 158.596 153.671C159.071 153.515 159.509 153.455 159.91 153.491C160.311 153.528 160.647 153.582 160.918 153.654L161.011 153.556L156.581 149.33L158.132 147.705ZM163.918 156.266C163.331 155.706 162.735 155.3 162.13 155.049C161.526 154.798 160.945 154.714 160.387 154.798C159.833 154.885 159.333 155.163 158.887 155.63C158.424 156.116 158.165 156.644 158.112 157.216C158.061 157.791 158.18 158.375 158.466 158.966C158.75 159.562 159.17 160.126 159.728 160.658C160.279 161.184 160.853 161.572 161.451 161.824C162.045 162.079 162.626 162.163 163.194 162.075C163.759 161.991 164.275 161.704 164.741 161.215C165.191 160.744 165.45 160.229 165.518 159.672C165.583 159.117 165.477 158.55 165.201 157.968C164.926 157.387 164.498 156.819 163.918 156.266Z" fill="white"/>
<path d="M145.011 164.983C145.622 164.581 146.248 164.329 146.89 164.23C147.535 164.134 148.145 164.209 148.72 164.454C149.291 164.701 149.785 165.14 150.201 165.771C150.56 166.315 150.75 166.831 150.773 167.32C150.796 167.809 150.697 168.273 150.476 168.713C150.256 169.152 149.961 169.569 149.591 169.963C149.221 170.357 148.826 170.731 148.406 171.086C147.873 171.533 147.441 171.897 147.109 172.175C146.78 172.459 146.567 172.704 146.47 172.912C146.373 173.12 146.399 173.337 146.548 173.562L146.577 173.606C146.938 174.154 147.373 174.476 147.881 174.573C148.384 174.673 148.939 174.523 149.545 174.123C150.177 173.707 150.582 173.239 150.761 172.719C150.938 172.206 150.984 171.734 150.899 171.305L152.926 170.544C153.103 171.267 153.109 171.941 152.945 172.565C152.779 173.196 152.487 173.767 152.068 174.277C151.651 174.792 151.153 175.241 150.571 175.624C150.187 175.878 149.749 176.101 149.258 176.293C148.765 176.492 148.252 176.596 147.718 176.606C147.181 176.619 146.645 176.483 146.11 176.2C145.578 175.921 145.08 175.43 144.617 174.728L140.398 168.331L142.229 167.124L143.098 168.441L143.173 168.391C143.135 168.069 143.159 167.71 143.247 167.316C143.335 166.922 143.519 166.522 143.797 166.117C144.076 165.711 144.48 165.333 145.011 164.983ZM145.596 166.757C145.078 167.099 144.702 167.494 144.469 167.941C144.232 168.391 144.127 168.845 144.152 169.302C144.176 169.766 144.314 170.188 144.565 170.569L145.384 171.811C145.406 171.7 145.495 171.551 145.648 171.366C145.801 171.188 145.984 170.998 146.199 170.796C146.417 170.598 146.63 170.407 146.837 170.222C147.048 170.041 147.224 169.889 147.365 169.766C147.698 169.48 147.979 169.184 148.209 168.876C148.434 168.572 148.569 168.258 148.614 167.935C148.657 167.618 148.568 167.293 148.347 166.958C148.041 166.494 147.638 166.256 147.138 166.244C146.641 166.236 146.127 166.407 145.596 166.757Z" fill="white"/>
<path d="M133.345 179.429L130.911 173.025L133.01 172.227L137.11 183.013L135.095 183.779L134.427 182.023L134.294 182.074C134.263 182.739 134.049 183.346 133.651 183.893C133.249 184.443 132.643 184.871 131.834 185.179C131.099 185.458 130.396 185.548 129.726 185.449C129.058 185.355 128.457 185.064 127.924 184.576C127.39 184.087 126.954 183.398 126.616 182.509L124.008 175.648L126.108 174.85L128.619 181.458C128.916 182.24 129.352 182.773 129.927 183.059C130.503 183.349 131.147 183.358 131.859 183.088C132.345 182.903 132.738 182.633 133.038 182.278C133.332 181.925 133.512 181.503 133.577 181.012C133.639 180.528 133.562 180 133.345 179.429Z" fill="white"/>
<path d="M114.421 173.54C114.752 173.49 115.059 173.472 115.339 173.485C115.619 173.494 115.83 173.518 115.973 173.557L115.712 175.458C115.29 175.41 114.921 175.417 114.606 175.48C114.292 175.542 114.03 175.703 113.821 175.963C113.607 176.223 113.444 176.62 113.331 177.153L113.171 177.952L119.086 188.882L116.709 189.24L112.486 180.821L112.367 180.839L110.811 190.129L108.427 190.488L111.181 176.847C111.309 176.22 111.511 175.675 111.786 175.213C112.06 174.747 112.414 174.374 112.848 174.096C113.282 173.818 113.807 173.633 114.421 173.54Z" fill="white"/>
<path d="M98.5646 179.001C98.9752 179.01 99.3251 179.163 99.6142 179.459C99.9033 179.761 100.043 180.12 100.034 180.535C100.026 180.946 99.8704 181.293 99.5687 181.577C99.267 181.866 98.9108 182.007 98.5002 181.998C98.0897 181.989 97.7398 181.834 97.4508 181.532C97.1616 181.235 97.0214 180.881 97.0303 180.471C97.0362 180.195 97.1117 179.944 97.2569 179.717C97.3969 179.494 97.581 179.318 97.8092 179.188C98.0374 179.057 98.2892 178.995 98.5646 179.001Z" fill="white"/>
</svg>
